Coordinates
version=1
nRows=11
nColumns=40
inDegrees=yes

Units are S.I. units (second, meters, Newtons, ...)
If the header above contains a line with 'inDegrees', this indicates whether rotational values are in degrees (yes) or radians (no).

endheader
time	pelvis_tilt	pelvis_list	pelvis_rotation	pelvis_tx	pelvis_ty	pelvis_tz	hip_flexion_r	hip_adduction_r	hip_rotation_r	knee_angle_r	knee_angle_r_beta	ankle_angle_r	subtalar_angle_r	mtp_angle_r	hip_flexion_l	hip_adduction_l	hip_rotation_l	knee_angle_l	knee_angle_l_beta	ankle_angle_l	subtalar_angle_l	mtp_angle_l	lumbar_extension	lumbar_bending	lumbar_rotation	arm_flex_r	arm_add_r	arm_rot_r	elbow_flex_r	pro_sup_r	wrist_flex_r	wrist_dev_r	arm_flex_l	arm_add_l	arm_rot_l	elbow_flex_l	pro_sup_l	wrist_flex_l	wrist_dev_l
     11.68300000	    -17.22812023	     -0.63432417	     10.95505237	      0.08526472	      1.29057918	     -0.01789994	     67.26311754	    -10.40222012	      2.90776747	     60.82744791	      1.06163924	     -4.56742050	    -26.95138061	      0.00000000	     56.10742425	     -7.61572404	      1.56943256	     84.59800291	      1.47651369	     -2.09998854	    -10.96308425	      0.00000000	    -49.10313420	     -3.88998653	     -2.84038006	     54.94715775	     22.24683567	    -42.25617776	     52.90753398	      0.93531785	      0.00000000	      0.00000000	     53.55505914	      8.87455376	    -28.27786001	     43.53579147	      4.26575641	      0.00000000	      0.00000000
     11.70000000	    -17.24366675	     -0.56755005	     11.60434650	      0.08484819	      1.29083247	     -0.01857439	     65.09496430	    -11.13253425	      1.93992658	     57.43220633	      1.00238110	     -6.80698375	    -26.06657875	      0.00000000	     57.96913859	     -7.10410709	      2.36407147	     87.78445055	      1.53212769	     -1.68588390	    -10.66884521	      0.00000000	    -49.14669940	     -3.61968083	     -3.31077747	     54.83655023	     22.17480266	    -42.32004649	     52.93303595	      0.92692363	      0.00000000	      0.00000000	     53.58516072	      8.96456370	    -28.29280078	     43.52320264	      4.41764977	      0.00000000	      0.00000000
     11.71700000	    -17.27672903	     -0.66271636	     12.24595358	      0.08448785	      1.29092584	     -0.01930289	     62.88797379	    -11.73252272	      0.87262596	     54.13381358	      0.94481328	     -9.11898085	    -25.21959991	      0.00000000	     59.94672335	     -6.65279340	      3.28210820	     90.81490156	      1.58501904	     -1.23583562	    -10.17312916	      0.00000000	    -49.11244424	     -3.20158913	     -3.64868733	     54.71366834	     22.07143137	    -42.34571742	     52.93916904	      0.94031290	      0.00000000	      0.00000000	     53.58469663	      9.06632026	    -28.23701808	     43.48441210	      4.20340319	      0.00000000	      0.00000000
     11.73300000	    -17.37370768	     -0.62116905	     12.73572086	      0.08415660	      1.29097035	     -0.01979779	     60.74846211	    -12.26326137	      0.03484198	     50.92913735	      0.88888113	    -11.52013719	    -23.93323399	      0.00000000	     61.93108710	     -6.17069389	      4.02087022	     93.62482178	      1.63406140	     -0.68254051	     -9.67363178	      0.00000000	    -49.05209038	     -3.01195439	     -3.98585389	     54.58191621	     21.97798444	    -42.41401792	     52.97239312	      0.93945637	      0.00000000	      0.00000000	     53.63197730	      9.15453621	    -28.17457344	     43.37239747	      4.08389773	      0.00000000	      0.00000000
     11.75000000	    -17.50473082	     -0.62114061	     13.29430096	      0.08378541	      1.29091723	     -0.02039311	     58.66911358	    -12.81562587	     -0.89134215	     47.94319339	      0.83676658	    -13.84618060	    -22.65910065	      0.00000000	     63.98816614	     -5.61678348	      4.78739595	     96.18210162	      1.67869435	     -0.18756058	     -9.23249315	      0.00000000	    -48.94857288	     -2.76083104	     -4.32850670	     54.45211567	     21.84890622	    -42.48483248	     53.00529832	      0.93484178	      0.00000000	      0.00000000	     53.66748685	      9.21968675	    -28.03848219	     43.26168219	      4.03053646	      0.00000000	      0.00000000
     11.76700000	    -17.70539476	     -0.55433316	     13.82694963	      0.08342179	      1.29079461	     -0.02105785	     56.72259772	    -13.38166747	     -1.75600258	     45.22101453	      0.78925559	    -16.14744711	    -21.38930641	      0.00000000	     66.08616356	     -4.98760532	      5.44165278	     98.46576239	      1.71855175	      0.27764539	     -8.95035320	      0.00000000	    -48.79542610	     -2.60805151	     -4.68486137	     54.29727342	     21.70413241	    -42.60228010	     53.07359772	      0.92725449	      0.00000000	      0.00000000	     53.69855161	      9.25837915	    -27.78793125	     43.11493389	      4.13525443	      0.00000000	      0.00000000
     11.78300000	    -17.88240895	     -0.73399091	     14.51120210	      0.08300713	      1.29057396	     -0.02191730	     54.72783593	    -13.90662327	     -3.03721709	     42.69336687	      0.74513982	    -18.32358064	    -20.29380392	      0.00000000	     68.30790120	     -4.32351849	      6.36482766	    100.53630678	      1.75468957	      0.72562585	     -8.57686677	      0.00000000	    -48.59160604	     -2.15852488	     -4.95360298	     54.14288822	     21.52490439	    -42.67985884	     53.09949031	      0.92357899	      0.00000000	      0.00000000	     53.70599572	      9.28972955	    -27.44615695	     42.94459312	      4.12621666	      0.00000000	      0.00000000
     11.80000000	    -18.07706235	     -0.85261209	     15.17024421	      0.08262207	      1.29030621	     -0.02266699	     52.86115134	    -14.40129143	     -4.24760488	     40.51030194	      0.70703815	    -20.26108487	    -19.30695336	      0.00000000	     70.46811962	     -3.63507618	      7.11976443	    102.26333819	      1.78483196	      1.24931618	     -8.30372350	      0.00000000	    -48.38468672	     -1.78762882	     -5.25843689	     54.00023065	     21.38166930	    -42.77822872	     53.13072780	      0.91677257	      0.00000000	      0.00000000	     53.72957871	      9.27446391	    -27.05075441	     42.76961561	      4.18528023	      0.00000000	      0.00000000
     11.81700000	    -18.27592625	     -0.90005687	     15.80676780	      0.08223471	      1.29004291	     -0.02334422	     51.09502344	    -14.87563705	     -5.40907650	     38.67648777	      0.67503205	    -21.89715933	    -18.56621193	      0.00000000	     72.57480277	     -2.96458399	      7.64272743	    103.67637552	      1.80949411	      1.81071252	     -8.21501385	      0.00000000	    -48.18728265	     -1.50196129	     -5.59119219	     53.90670830	     21.18870646	    -42.89646982	     53.12574468	      0.90212495	      0.00000000	      0.00000000	     53.77636839	      9.22409131	    -26.59804768	     42.56187187	      4.19889008	      0.00000000	      0.00000000
     11.83300000	    -18.45736518	     -0.95140182	     16.45718861	      0.08188000	      1.28977241	     -0.02404253	     49.39968733	    -15.32417957	     -6.63123037	     37.19414656	      0.64916032	    -23.23393173	    -18.05082889	      0.00000000	     74.62336994	     -2.28082497	      8.05685365	    104.77178000	      1.82861252	      2.37001110	     -8.29831463	      0.00000000	    -48.00037694	     -1.20008844	     -5.92572822	     53.82736735	     20.99056408	    -43.02499135	     53.08485656	      0.89343093	      0.00000000	      0.00000000	     53.83152988	      9.13378871	    -26.03516398	     42.32840121	      4.15753271	      0.00000000	      0.00000000
     11.85000000	    -18.55045273	     -1.02533973	     17.16080606	      0.08166210	      1.28957088	     -0.02481038	     47.75488620	    -15.74941243	     -7.83024495	     36.13066504	      0.63059907	    -24.09376418	    -17.78054469	      0.00000000	     76.44259645	     -1.54805357	      8.41870307	    105.43552368	      1.84019704	      2.90245964	     -8.45922207	      0.00000000	    -47.89102403	     -0.82251446	     -6.28765413	     53.71998596	     20.82941017	    -43.10374852	     53.08128631	      0.90011743	      0.00000000	      0.00000000	     53.88727897	      9.00874421	    -25.43775529	     42.12570991	      3.81200806	      0.00000000	      0.00000000
